<svg xmlns="http://www.w3.org/2000/svg" xmlns:xlink="http://www.w3.org/1999/xlink" width="500" zoomAndPan="magnify" viewBox="0 0 375 374.999991" height="500" preserveAspectRatio="xMidYMid meet" version="1.0"><defs><g/><clipPath id="4a1cff0608"><path d="M 92.484375 30.085938 L 282.234375 30.085938 L 282.234375 249.835938 L 92.484375 249.835938 Z M 92.484375 30.085938 " clip-rule="nonzero"/></clipPath></defs><g clip-path="url(#4a1cff0608)"><path fill="#b6ccfe" d="M 130.652344 61.480469 C 130.753906 61.480469 130.867188 61.554688 130.996094 61.714844 C 131.136719 61.890625 131.410156 62.203125 131.597656 62.429688 C 131.800781 62.640625 132.1875 63.128906 132.476562 63.507812 C 132.765625 63.882812 133.128906 64.320312 133.277344 64.484375 C 133.441406 64.644531 133.566406 64.820312 133.566406 64.894531 C 133.566406 65.019531 133.691406 65.195312 134.078125 65.609375 C 134.179688 65.722656 134.429688 66.097656 134.617188 66.4375 C 134.816406 66.761719 135.082031 67.152344 135.207031 67.277344 C 135.332031 67.402344 135.445312 67.5625 135.445312 67.613281 C 135.445312 67.675781 135.59375 67.890625 135.769531 68.089844 C 135.945312 68.289062 136.144531 68.601562 136.21875 68.792969 C 136.28125 68.992188 136.394531 69.140625 136.457031 69.140625 C 136.519531 69.140625 136.660156 69.316406 136.773438 69.542969 C 136.882812 69.753906 137.085938 70.042969 137.210938 70.179688 C 137.335938 70.332031 137.449219 70.480469 137.449219 70.519531 C 137.449219 70.570312 137.585938 70.769531 137.761719 70.96875 C 137.9375 71.171875 138.074219 71.371094 138.074219 71.410156 C 138.074219 71.484375 138.6875 72.324219 138.988281 72.648438 C 139.089844 72.75 139.238281 72.972656 139.328125 73.148438 C 139.414062 73.324219 139.628906 73.574219 139.789062 73.714844 C 139.941406 73.851562 140.078125 74.039062 140.078125 74.125 C 140.078125 74.214844 140.214844 74.441406 140.390625 74.628906 C 140.566406 74.816406 140.703125 75.015625 140.703125 75.078125 C 140.703125 75.140625 140.878906 75.355469 141.082031 75.554688 C 141.292969 75.742188 141.457031 75.96875 141.457031 76.03125 C 141.457031 76.105469 141.59375 76.28125 141.769531 76.429688 C 141.945312 76.582031 142.082031 76.746094 142.082031 76.808594 C 142.082031 76.871094 142.296875 77.132812 142.558594 77.394531 C 142.808594 77.644531 143.132812 78.023438 143.257812 78.210938 C 143.398438 78.398438 143.597656 78.660156 143.699219 78.785156 C 143.808594 78.921875 144.011719 79.175781 144.148438 79.347656 C 144.285156 79.523438 144.613281 79.925781 144.875 80.238281 C 145.125 80.550781 145.339844 80.851562 145.339844 80.925781 C 145.339844 80.992188 145.425781 81.039062 145.527344 81.039062 C 145.625 81.039062 145.714844 81.078125 145.714844 81.128906 C 145.714844 81.191406 145.851562 81.390625 146.027344 81.589844 C 146.203125 81.792969 146.339844 82.003906 146.339844 82.066406 C 146.339844 82.117188 146.414062 82.167969 146.503906 82.167969 C 146.589844 82.167969 146.828125 82.367188 147.027344 82.605469 C 147.242188 82.84375 147.480469 83.042969 147.566406 83.042969 C 147.644531 83.042969 147.71875 83.105469 147.71875 83.167969 C 147.71875 83.246094 147.882812 83.46875 148.082031 83.671875 C 148.28125 83.882812 148.507812 84.222656 148.59375 84.421875 C 148.683594 84.636719 148.796875 84.796875 148.859375 84.796875 C 148.921875 84.796875 148.96875 84.984375 148.96875 85.210938 C 148.96875 85.523438 149.070312 85.726562 149.347656 85.960938 C 149.546875 86.152344 149.746094 86.300781 149.785156 86.300781 C 149.898438 86.300781 150.472656 86.902344 150.472656 87.015625 C 150.472656 87.066406 150.675781 87.277344 150.910156 87.492188 C 151.148438 87.691406 151.351562 87.929688 151.351562 88.015625 C 151.351562 88.105469 151.425781 88.21875 151.511719 88.265625 C 151.613281 88.316406 151.789062 88.53125 151.925781 88.742188 C 152.050781 88.945312 152.214844 89.179688 152.289062 89.257812 C 152.351562 89.332031 152.527344 89.542969 152.664062 89.734375 C 152.804688 89.921875 153.027344 90.207031 153.167969 90.359375 C 153.304688 90.523438 153.503906 90.773438 153.605469 90.921875 C 153.703125 91.085938 153.917969 91.347656 154.082031 91.511719 C 154.230469 91.6875 154.355469 91.875 154.355469 91.949219 C 154.355469 92.011719 154.445312 92.0625 154.542969 92.0625 C 154.644531 92.0625 154.730469 92.125 154.730469 92.1875 C 154.730469 92.261719 154.855469 92.460938 155.019531 92.625 C 155.433594 93.078125 155.609375 93.289062 155.609375 93.378906 C 155.609375 93.414062 155.820312 93.664062 156.085938 93.941406 C 156.785156 94.679688 157.113281 95.054688 157.113281 95.128906 C 157.113281 95.207031 157.1875 95.292969 158.339844 96.535156 C 158.726562 96.945312 159.164062 97.460938 159.304688 97.648438 C 159.441406 97.835938 159.742188 98.1875 159.96875 98.410156 C 160.179688 98.636719 160.367188 98.851562 160.367188 98.886719 C 160.367188 99.011719 160.71875 99.328125 160.855469 99.328125 C 160.929688 99.328125 160.996094 99.375 160.996094 99.4375 C 160.996094 99.613281 161.558594 100.203125 161.734375 100.203125 C 161.808594 100.203125 161.871094 100.253906 161.871094 100.316406 C 161.871094 100.492188 162.433594 101.078125 162.609375 101.078125 C 162.683594 101.078125 162.746094 101.128906 162.746094 101.191406 C 162.746094 101.34375 163.335938 101.957031 163.488281 101.957031 C 163.550781 101.957031 163.648438 102.070312 163.6875 102.207031 C 163.722656 102.34375 163.835938 102.457031 163.914062 102.457031 C 164 102.457031 164.238281 102.65625 164.4375 102.894531 C 164.652344 103.132812 164.890625 103.335938 164.976562 103.335938 C 165.050781 103.335938 165.128906 103.421875 165.128906 103.523438 C 165.128906 103.621094 165.191406 103.710938 165.265625 103.710938 C 165.351562 103.710938 165.527344 103.835938 165.679688 103.996094 C 165.816406 104.148438 166.066406 104.375 166.230469 104.472656 C 166.378906 104.585938 166.71875 104.875 166.980469 105.101562 C 167.230469 105.339844 167.734375 105.75 168.070312 106.027344 C 168.421875 106.300781 168.898438 106.742188 169.148438 106.992188 C 169.398438 107.253906 169.660156 107.46875 169.738281 107.46875 C 169.824219 107.46875 169.886719 107.53125 169.886719 107.605469 C 169.886719 107.816406 170.925781 109.09375 171.101562 109.09375 C 171.1875 109.09375 171.265625 109.171875 171.265625 109.269531 C 171.265625 109.371094 171.339844 109.535156 171.425781 109.621094 C 171.515625 109.710938 171.726562 109.984375 171.890625 110.222656 C 172.054688 110.460938 172.230469 110.6875 172.277344 110.722656 C 172.402344 110.824219 172.542969 111.613281 172.53125 112.164062 C 172.464844 114.542969 172.367188 115.53125 172.179688 115.671875 C 171.890625 115.882812 171.527344 117.074219 171.441406 118.175781 C 171.378906 118.941406 171.289062 119.242188 171.101562 119.414062 C 170.886719 119.628906 170.863281 119.777344 170.914062 120.582031 C 170.953125 121.082031 170.925781 121.496094 170.875 121.496094 C 170.824219 121.496094 170.726562 121.683594 170.664062 121.921875 C 170.511719 122.460938 170.148438 122.824219 169.636719 122.933594 C 168.722656 123.136719 167.644531 124.023438 167.21875 124.925781 C 166.742188 125.914062 166.644531 126.214844 166.554688 126.667969 C 166.503906 126.992188 166.316406 127.304688 166.003906 127.605469 C 165.429688 128.15625 165.027344 128.507812 164.953125 128.507812 C 164.714844 128.507812 163.3125 129.9375 162.898438 130.601562 C 162.847656 130.675781 162.609375 130.824219 162.371094 130.9375 C 162.132812 131.039062 161.65625 131.300781 161.308594 131.503906 C 160.894531 131.75 160.625 131.871094 160.402344 131.871094 C 160.234375 131.871094 160.09375 131.800781 159.941406 131.664062 C 159.628906 131.375 158.816406 131.140625 158.203125 131.140625 C 157.863281 131.140625 157.699219 131.0625 157.550781 130.851562 C 157.375 130.5625 156.511719 130.011719 156.261719 130.011719 C 156.097656 130.011719 155.132812 129.5625 154.667969 129.261719 C 153.96875 128.808594 153.417969 128.535156 152.351562 128.121094 C 151.761719 127.894531 151.136719 127.59375 150.960938 127.46875 C 150.625 127.230469 149.847656 127.042969 147.71875 126.679688 C 147.066406 126.578125 146.378906 126.40625 146.191406 126.304688 C 146.003906 126.203125 145.515625 126.128906 144.988281 126.128906 C 144.460938 126.128906 143.972656 126.054688 143.761719 125.941406 C 143.535156 125.828125 143.046875 125.753906 142.433594 125.753906 C 141.644531 125.753906 141.441406 125.714844 141.34375 125.527344 C 141.242188 125.339844 141.03125 125.316406 139.800781 125.316406 C 138.425781 125.316406 138.375 125.300781 137.8125 124.925781 C 137.5 124.714844 137.035156 124.5 136.796875 124.449219 C 136.546875 124.402344 136.320312 124.300781 136.28125 124.210938 C 136.257812 124.136719 135.957031 123.988281 135.644531 123.886719 C 135.21875 123.761719 135.019531 123.625 134.929688 123.421875 C 134.855469 123.199219 134.730469 123.121094 134.46875 123.121094 C 134.203125 123.121094 133.902344 122.921875 133.300781 122.359375 C 132.449219 121.546875 130.972656 120.367188 130.796875 120.367188 C 130.734375 120.367188 130.683594 120.28125 130.683594 120.179688 C 130.683594 120.078125 130.621094 119.992188 130.546875 119.992188 C 130.472656 119.992188 130.144531 119.742188 129.820312 119.441406 C 128.59375 118.261719 128.417969 118.113281 128.304688 118.113281 C 128.230469 118.113281 128.179688 118.0625 128.179688 118 C 128.179688 117.898438 126.324219 115.984375 126.226562 115.984375 C 126.214844 115.984375 125.863281 115.660156 125.449219 115.257812 C 124.671875 114.519531 123.320312 113.265625 123.03125 113.027344 C 122.933594 112.953125 122.757812 112.777344 122.644531 112.652344 C 122.242188 112.214844 120.753906 110.972656 120.628906 110.972656 C 120.589844 110.972656 120.363281 110.785156 120.140625 110.5625 C 119.914062 110.335938 119.160156 109.710938 118.472656 109.15625 C 117.070312 108.054688 116.730469 107.730469 116.242188 107.066406 C 116.054688 106.816406 115.78125 106.566406 115.628906 106.515625 C 115.378906 106.441406 114.691406 105.839844 114.855469 105.839844 C 115.054688 105.839844 114.476562 105.101562 114.238281 105.039062 C 113.988281 104.976562 113.914062 104.835938 113.789062 104.25 C 113.714844 103.859375 113.652344 103.222656 113.652344 102.820312 C 113.652344 102.144531 113.675781 102.070312 114.089844 101.769531 C 114.328125 101.582031 114.554688 101.304688 114.601562 101.167969 C 114.652344 101.015625 114.878906 100.640625 115.105469 100.339844 C 115.34375 100.039062 115.53125 99.714844 115.53125 99.625 C 115.53125 99.414062 116.042969 98.539062 116.242188 98.410156 C 116.332031 98.363281 116.40625 98.199219 116.40625 98.074219 C 116.40625 97.9375 116.46875 97.824219 116.53125 97.824219 C 116.605469 97.824219 116.730469 97.671875 116.808594 97.472656 C 116.894531 97.285156 117.207031 96.859375 117.507812 96.519531 C 117.808594 96.183594 118.085938 95.746094 118.121094 95.542969 C 118.160156 95.355469 118.234375 95.191406 118.296875 95.191406 C 118.410156 95.191406 119.160156 93.675781 119.160156 93.453125 C 119.160156 93.390625 119.25 93.316406 119.351562 93.265625 C 119.460938 93.226562 119.539062 93.039062 119.539062 92.789062 C 119.539062 92.5625 119.625 92.261719 119.726562 92.136719 C 119.988281 91.785156 119.988281 87.867188 119.738281 87.238281 C 119.613281 86.953125 119.585938 86.703125 119.664062 86.464844 C 119.726562 86.277344 119.824219 85.773438 119.902344 85.363281 C 119.964844 84.949219 120.113281 84.183594 120.226562 83.671875 C 120.339844 83.15625 120.503906 82.394531 120.589844 81.980469 C 120.675781 81.566406 120.816406 81.066406 120.890625 80.878906 C 120.976562 80.675781 121.039062 80.390625 121.039062 80.238281 C 121.039062 80.074219 121.128906 79.675781 121.230469 79.335938 C 121.328125 79 121.417969 78.523438 121.417969 78.285156 C 121.417969 78.046875 121.527344 77.597656 121.667969 77.296875 C 121.804688 76.996094 121.917969 76.480469 121.917969 76.128906 C 121.917969 75.792969 121.980469 75.40625 122.054688 75.253906 C 122.128906 75.117188 122.207031 74.628906 122.21875 74.175781 C 122.242188 73.714844 122.28125 73.25 122.316406 73.148438 C 122.582031 72.4375 122.882812 70.257812 122.96875 68.554688 C 122.980469 68.402344 123.019531 68.242188 123.082031 68.191406 C 123.132812 68.140625 123.171875 67.964844 123.171875 67.800781 C 123.171875 67.625 123.234375 67.375 123.320312 67.226562 C 123.394531 67.074219 123.507812 66.585938 123.558594 66.136719 C 123.746094 64.59375 123.820312 64.308594 124.273438 63.457031 C 124.484375 63.03125 124.734375 62.78125 125.199219 62.464844 C 125.414062 62.328125 125.667969 62.253906 125.839844 62.253906 C 125.964844 62.253906 126.050781 62.292969 126.050781 62.378906 C 126.050781 62.441406 126.238281 62.503906 126.476562 62.503906 C 126.714844 62.503906 126.953125 62.441406 126.988281 62.378906 C 127.027344 62.304688 127.492188 62.253906 128.015625 62.253906 C 128.929688 62.253906 129.40625 62.117188 130.558594 61.503906 C 130.589844 61.488281 130.621094 61.480469 130.652344 61.480469 Z M 128.304688 30.066406 C 127.414062 30.066406 127.179688 30.191406 127.179688 30.652344 C 127.179688 30.804688 127.101562 30.980469 127.003906 31.03125 C 126.914062 31.078125 126.550781 31.730469 126.1875 32.484375 C 125.472656 33.972656 125.398438 34.511719 125.738281 35.640625 C 126.136719 36.917969 125.964844 37.59375 124.949219 38.707031 C 124.6875 39.007812 124.550781 39.117188 124.417969 39.117188 C 124.375 39.117188 124.332031 39.105469 124.285156 39.082031 C 124.125 38.992188 123.859375 38.949219 123.582031 38.949219 C 123.167969 38.949219 122.714844 39.042969 122.507812 39.207031 C 122.332031 39.347656 122.117188 39.457031 122.042969 39.457031 C 121.703125 39.457031 121.027344 40.011719 120.652344 40.597656 C 120.300781 41.125 120.164062 41.226562 119.75 41.300781 C 119.375 41.351562 119.238281 41.449219 119.148438 41.699219 C 119.085938 41.875 118.972656 42.125 118.910156 42.238281 C 118.835938 42.363281 118.785156 42.789062 118.785156 43.179688 C 118.785156 43.867188 118.75 43.941406 118.160156 44.59375 C 117.570312 45.246094 117.535156 45.320312 117.535156 45.972656 C 117.535156 46.371094 117.421875 46.949219 117.269531 47.347656 C 117.070312 47.863281 116.996094 48.375 116.96875 49.351562 C 116.945312 50.707031 116.921875 50.792969 116.144531 52.460938 C 115.941406 52.886719 115.78125 53.285156 115.78125 53.347656 C 115.78125 53.410156 115.59375 54.039062 115.355469 54.75 C 115.128906 55.464844 114.867188 56.355469 114.777344 56.71875 C 114.703125 57.066406 114.578125 57.40625 114.515625 57.445312 C 114.453125 57.480469 114.402344 57.667969 114.402344 57.871094 C 114.402344 58.070312 114.351562 58.257812 114.289062 58.296875 C 114.226562 58.332031 114.140625 58.582031 114.089844 58.835938 C 114.039062 59.097656 113.789062 59.824219 113.511719 60.460938 C 113.25 61.101562 113.023438 61.703125 113.023438 61.800781 C 113.023438 61.902344 112.976562 62.003906 112.925781 62.027344 C 112.800781 62.078125 112.148438 63.417969 112.148438 63.617188 C 112.148438 63.695312 112.097656 63.757812 112.035156 63.757812 C 111.972656 63.757812 111.871094 63.945312 111.835938 64.15625 C 111.785156 64.382812 111.710938 64.59375 111.660156 64.632812 C 111.609375 64.671875 111.273438 65.308594 110.894531 66.074219 C 110.519531 66.824219 110.183594 67.476562 110.132812 67.515625 C 110.09375 67.550781 109.945312 67.851562 109.78125 68.203125 C 109.617188 68.539062 109.332031 69.066406 109.128906 69.367188 C 108.929688 69.667969 108.765625 69.957031 108.765625 70.007812 C 108.765625 70.054688 108.652344 70.230469 108.515625 70.394531 C 108.378906 70.558594 108.265625 70.757812 108.265625 70.859375 C 108.265625 70.945312 108.214844 71.019531 108.164062 71.019531 C 108.101562 71.019531 107.925781 71.257812 107.765625 71.546875 C 107.601562 71.847656 107.339844 72.25 107.175781 72.4375 C 107.011719 72.636719 106.886719 72.898438 106.886719 73.039062 C 106.886719 73.164062 106.835938 73.273438 106.761719 73.273438 C 106.699219 73.273438 106.613281 73.414062 106.5625 73.589844 C 106.523438 73.761719 106.4375 73.902344 106.386719 73.902344 C 106.335938 73.902344 106.210938 74.089844 106.125 74.300781 C 106.035156 74.527344 105.859375 74.828125 105.734375 74.953125 C 105.609375 75.089844 105.511719 75.277344 105.511719 75.378906 C 105.511719 75.46875 105.421875 75.628906 105.324219 75.730469 C 105.222656 75.84375 105.132812 76.054688 105.132812 76.21875 C 105.132812 76.382812 105.085938 76.53125 105.035156 76.554688 C 104.882812 76.605469 104.257812 78.007812 104.257812 78.273438 C 104.257812 78.386719 104.144531 78.558594 104.007812 78.660156 C 103.871094 78.761719 103.757812 78.949219 103.757812 79.074219 C 103.757812 79.199219 103.667969 79.386719 103.570312 79.488281 C 103.46875 79.601562 103.382812 79.863281 103.382812 80.089844 C 103.382812 80.425781 103.320312 80.515625 102.980469 80.628906 C 102.753906 80.714844 102.304688 80.816406 101.976562 80.851562 C 101.640625 80.902344 101.378906 80.992188 101.378906 81.054688 C 101.378906 81.117188 101.289062 81.164062 101.1875 81.164062 C 101.089844 81.164062 101 81.214844 101 81.289062 C 101 81.351562 100.726562 81.417969 100.386719 81.417969 C 99.960938 81.417969 99.75 81.464844 99.699219 81.605469 C 99.660156 81.703125 99.5 81.792969 99.347656 81.792969 C 99.183594 81.792969 98.972656 81.90625 98.871094 82.042969 C 98.773438 82.179688 98.585938 82.292969 98.445312 82.292969 C 98.320312 82.292969 98.082031 82.429688 97.921875 82.605469 C 97.757812 82.78125 97.582031 82.917969 97.507812 82.917969 C 97.445312 82.917969 97.34375 83.03125 97.304688 83.167969 C 97.269531 83.308594 97.15625 83.421875 97.082031 83.421875 C 96.832031 83.421875 96.441406 84.421875 96.355469 85.296875 C 96.304688 85.75 96.191406 86.8125 96.105469 87.664062 C 96.015625 88.65625 95.890625 89.292969 95.792969 89.40625 C 95.691406 89.507812 95.617188 89.832031 95.617188 90.195312 C 95.617188 90.535156 95.539062 90.996094 95.453125 91.222656 C 95.351562 91.449219 95.238281 91.925781 95.191406 92.300781 C 95.140625 92.675781 95.015625 93.140625 94.914062 93.328125 C 94.828125 93.515625 94.738281 93.878906 94.738281 94.128906 C 94.738281 94.378906 94.664062 94.703125 94.5625 94.855469 C 94.464844 95.003906 94.351562 95.355469 94.300781 95.617188 C 94.261719 95.882812 94.136719 96.183594 94.039062 96.28125 C 93.9375 96.382812 93.863281 96.597656 93.863281 96.757812 C 93.863281 96.921875 93.773438 97.132812 93.675781 97.246094 C 93.574219 97.347656 93.449219 97.597656 93.410156 97.8125 C 93.363281 98.011719 93.261719 98.210938 93.160156 98.25 C 93.0625 98.285156 92.984375 98.460938 92.984375 98.636719 C 92.984375 98.8125 92.898438 99.164062 92.796875 99.414062 C 92.660156 99.753906 92.609375 100.378906 92.609375 102.03125 C 92.609375 103.984375 92.636719 104.25 92.859375 104.613281 C 93 104.835938 93.109375 105.164062 93.109375 105.339844 C 93.109375 105.511719 93.222656 105.8125 93.363281 106.027344 C 93.5 106.226562 93.613281 106.554688 93.613281 106.726562 C 93.613281 106.917969 93.722656 107.203125 93.863281 107.378906 C 94 107.554688 94.113281 107.832031 94.113281 108.007812 C 94.113281 108.167969 94.1875 108.382812 94.289062 108.457031 C 94.386719 108.542969 94.511719 108.792969 94.5625 109.007812 C 94.601562 109.234375 94.75 109.546875 94.875 109.710938 C 95.015625 109.871094 95.113281 110.085938 95.113281 110.171875 C 95.113281 110.273438 95.316406 110.636719 95.554688 110.972656 C 95.792969 111.3125 95.992188 111.636719 95.992188 111.675781 C 95.992188 111.714844 96.21875 112.027344 96.492188 112.351562 C 96.769531 112.675781 96.992188 113.003906 96.992188 113.054688 C 96.992188 113.152344 97.46875 113.730469 98.160156 114.480469 C 98.246094 114.582031 98.632812 115.042969 98.996094 115.507812 C 99.375 115.984375 99.710938 116.359375 99.773438 116.359375 C 99.824219 116.359375 99.875 116.421875 99.875 116.484375 C 99.875 116.558594 100.035156 116.773438 100.238281 116.972656 C 100.4375 117.171875 100.914062 117.6875 101.289062 118.125 C 101.664062 118.5625 102.441406 119.414062 103.019531 120.003906 C 103.59375 120.605469 104.183594 121.257812 104.320312 121.445312 C 104.457031 121.644531 104.785156 122.019531 105.046875 122.285156 C 105.296875 122.546875 105.511719 122.796875 105.511719 122.835938 C 105.511719 122.871094 105.710938 123.085938 105.949219 123.324219 C 106.1875 123.550781 106.386719 123.785156 106.386719 123.863281 C 106.386719 123.9375 106.625 124.25 106.925781 124.550781 C 107.863281 125.554688 108.765625 126.691406 108.765625 126.867188 C 108.765625 126.929688 108.878906 127.03125 109.015625 127.066406 C 109.15625 127.105469 109.269531 127.195312 109.269531 127.242188 C 109.269531 127.304688 109.480469 127.582031 109.730469 127.855469 C 109.992188 128.144531 110.371094 128.597656 110.570312 128.882812 C 110.78125 129.160156 110.984375 129.386719 111.046875 129.386719 C 111.097656 129.386719 111.144531 129.460938 111.144531 129.5625 C 111.144531 129.660156 111.257812 129.785156 111.398438 129.824219 C 111.535156 129.859375 111.648438 129.988281 111.648438 130.085938 C 111.648438 130.1875 111.734375 130.300781 111.835938 130.335938 C 111.933594 130.375 112.046875 130.511719 112.085938 130.636719 C 112.125 130.761719 112.285156 131 112.4375 131.164062 C 113.085938 131.890625 113.601562 132.503906 113.777344 132.765625 C 114.050781 133.191406 114.539062 133.769531 115.003906 134.230469 C 115.21875 134.457031 115.40625 134.683594 115.40625 134.734375 C 115.40625 134.832031 115.867188 135.347656 117.171875 136.738281 C 117.507812 137.101562 117.785156 137.449219 117.785156 137.515625 C 117.785156 137.5625 117.910156 137.765625 118.074219 137.941406 C 118.5 138.429688 118.785156 138.816406 118.785156 138.929688 C 118.785156 138.980469 118.910156 139.15625 119.074219 139.316406 C 119.226562 139.480469 119.460938 139.769531 119.585938 139.957031 C 119.726562 140.144531 119.9375 140.417969 120.0625 140.570312 C 120.425781 141.019531 120.714844 141.371094 120.976562 141.722656 C 121.117188 141.898438 121.328125 142.148438 121.441406 142.261719 C 121.566406 142.375 121.667969 142.535156 121.667969 142.625 C 121.667969 142.710938 121.753906 142.785156 121.855469 142.785156 C 121.953125 142.785156 122.042969 142.875 122.042969 142.972656 C 122.042969 143.074219 122.179688 143.289062 122.355469 143.4375 C 122.53125 143.589844 122.667969 143.789062 122.667969 143.875 C 122.667969 143.964844 122.742188 144.039062 122.84375 144.039062 C 122.945312 144.039062 123.070312 144.152344 123.105469 144.289062 C 123.144531 144.425781 123.234375 144.539062 123.296875 144.539062 C 123.457031 144.539062 124.921875 146.003906 124.921875 146.15625 C 124.921875 146.230469 125.011719 146.292969 125.109375 146.292969 C 125.210938 146.292969 125.300781 146.34375 125.300781 146.40625 C 125.300781 146.46875 125.726562 146.933594 126.238281 147.433594 C 126.753906 147.945312 127.179688 148.421875 127.179688 148.484375 C 127.179688 148.558594 127.289062 148.6875 127.414062 148.761719 C 127.703125 148.949219 128.128906 150.214844 128.242188 151.304688 C 128.292969 151.753906 128.417969 152.28125 128.519531 152.46875 C 128.65625 152.730469 128.742188 154.421875 128.929688 160.171875 C 129.070312 164.214844 129.230469 168.0625 129.308594 168.710938 C 129.382812 169.363281 129.496094 170.804688 129.546875 171.90625 C 129.609375 173.183594 129.71875 174.074219 129.832031 174.347656 C 129.945312 174.597656 130.058594 175.226562 130.109375 175.75 C 130.160156 176.265625 130.269531 176.839844 130.371094 177.015625 C 130.460938 177.191406 130.570312 177.742188 130.621094 178.242188 C 130.671875 178.757812 130.824219 179.496094 130.949219 179.882812 C 131.074219 180.285156 131.1875 180.835938 131.1875 181.113281 C 131.1875 181.398438 131.261719 181.777344 131.359375 181.964844 C 131.449219 182.152344 131.585938 182.664062 131.675781 183.101562 C 131.75 183.554688 131.863281 183.941406 131.9375 183.992188 C 132 184.03125 132.101562 184.429688 132.136719 184.882812 C 132.1875 185.320312 132.300781 185.847656 132.414062 186.046875 C 132.511719 186.257812 132.625 186.898438 132.664062 187.488281 C 132.699219 188.164062 132.800781 188.726562 132.953125 189.015625 C 133.128906 189.367188 133.203125 189.917969 133.265625 191.457031 C 133.316406 192.796875 133.414062 193.597656 133.539062 193.886719 C 133.789062 194.476562 133.929688 202.089844 133.691406 203.003906 C 133.617188 203.332031 133.488281 204.832031 133.425781 206.347656 C 133.238281 210.921875 133.175781 211.710938 132.988281 212.210938 C 132.765625 212.824219 132.765625 213.976562 132.988281 214.164062 C 133.089844 214.253906 133.203125 214.503906 133.238281 214.742188 C 133.289062 214.976562 133.441406 215.230469 133.566406 215.304688 C 133.703125 215.378906 133.816406 215.515625 133.816406 215.605469 C 133.816406 215.691406 133.953125 215.832031 134.128906 215.90625 C 134.304688 215.980469 134.441406 216.105469 134.441406 216.179688 C 134.441406 216.242188 134.53125 216.304688 134.628906 216.304688 C 134.730469 216.304688 134.816406 216.355469 134.816406 216.417969 C 134.816406 216.492188 135.066406 216.582031 135.382812 216.632812 C 135.71875 216.683594 135.945312 216.769531 135.945312 216.871094 C 135.945312 216.96875 136.070312 217.058594 136.207031 217.082031 C 136.359375 217.109375 136.519531 217.207031 136.570312 217.308594 C 136.621094 217.40625 136.757812 217.671875 136.871094 217.898438 C 136.984375 218.109375 137.070312 218.398438 137.070312 218.535156 C 137.070312 218.671875 137.148438 218.8125 137.246094 218.847656 C 137.347656 218.886719 137.460938 219.148438 137.511719 219.4375 C 137.5625 219.710938 137.671875 220.027344 137.773438 220.113281 C 137.875 220.214844 137.949219 220.375 137.949219 220.464844 C 137.949219 220.628906 138.425781 221.714844 138.699219 222.191406 C 138.761719 222.292969 138.988281 222.742188 139.214844 223.195312 C 139.425781 223.644531 139.652344 224.035156 139.691406 224.070312 C 139.738281 224.109375 139.851562 224.335938 139.953125 224.574219 C 140.039062 224.808594 140.191406 225.097656 140.292969 225.210938 C 140.378906 225.3125 140.453125 225.5 140.453125 225.613281 C 140.453125 225.722656 140.492188 225.824219 140.554688 225.824219 C 140.640625 225.824219 140.867188 226.289062 141.015625 226.789062 C 141.054688 226.953125 141.144531 227.078125 141.207031 227.078125 C 141.269531 227.078125 141.355469 227.277344 141.40625 227.515625 C 141.441406 227.753906 141.53125 227.992188 141.59375 228.027344 C 141.65625 228.066406 141.707031 228.179688 141.707031 228.28125 C 141.707031 228.378906 141.804688 228.691406 141.945312 228.992188 C 142.070312 229.28125 142.269531 229.796875 142.394531 230.144531 C 142.519531 230.484375 142.671875 230.820312 142.722656 230.898438 C 142.785156 230.960938 142.832031 231.121094 142.832031 231.246094 C 142.832031 231.386719 142.945312 231.722656 143.070312 232.011719 C 143.398438 232.714844 143.699219 233.652344 143.859375 234.429688 C 143.921875 234.792969 144.035156 235.09375 144.085938 235.09375 C 144.136719 235.09375 144.25 235.46875 144.335938 235.933594 C 144.410156 236.394531 144.523438 236.859375 144.597656 236.984375 C 144.664062 237.109375 144.761719 237.609375 144.835938 238.113281 C 144.914062 238.613281 145.011719 239.0625 145.074219 239.101562 C 145.261719 239.214844 145.5 241.480469 145.515625 243.421875 C 145.539062 244.9375 145.601562 245.511719 145.828125 246.402344 C 146.023438 247.144531 146.144531 247.449219 146.261719 247.449219 C 146.273438 247.449219 146.28125 247.445312 146.289062 247.441406 C 146.3125 247.433594 146.332031 247.429688 146.347656 247.429688 C 146.425781 247.429688 146.464844 247.496094 146.464844 247.617188 C 146.464844 247.753906 146.515625 247.867188 146.589844 247.867188 C 146.652344 247.867188 146.742188 248.003906 146.792969 248.179688 C 146.839844 248.367188 146.898438 248.449219 147 248.449219 C 147.027344 248.449219 147.058594 248.441406 147.09375 248.429688 C 147.128906 248.421875 147.160156 248.414062 147.191406 248.414062 C 147.292969 248.414062 147.355469 248.484375 147.40625 248.621094 C 147.46875 248.820312 147.59375 248.871094 148.042969 248.871094 C 148.34375 248.871094 148.59375 248.921875 148.59375 248.996094 C 148.59375 249.082031 149.710938 249.125 150.84375 249.125 C 151.972656 249.125 153.117188 249.082031 153.167969 248.996094 C 153.203125 248.933594 153.492188 248.871094 153.792969 248.871094 C 154.09375 248.871094 154.382812 248.933594 154.417969 248.996094 C 154.46875 249.070312 155.144531 249.121094 156.046875 249.121094 C 156.949219 249.121094 157.625 249.171875 157.675781 249.246094 C 157.726562 249.328125 158.167969 249.367188 158.613281 249.367188 C 159.058594 249.367188 159.503906 249.328125 159.554688 249.246094 C 159.605469 249.15625 160.808594 249.113281 162.003906 249.113281 C 163.195312 249.113281 164.375 249.15625 164.375 249.246094 C 164.375 249.320312 165.316406 249.371094 166.945312 249.371094 C 168.570312 249.371094 169.511719 249.421875 169.511719 249.496094 C 169.511719 249.570312 170.0625 249.621094 170.925781 249.621094 C 172.128906 249.621094 172.378906 249.582031 172.640625 249.371094 C 172.816406 249.234375 173.15625 249.121094 173.40625 249.121094 C 173.894531 249.121094 174.070312 248.957031 174.445312 248.230469 C 174.597656 247.941406 174.660156 247.65625 174.609375 247.417969 C 174.570312 247.214844 174.46875 246.726562 174.394531 246.339844 C 174.308594 245.9375 174.195312 245.613281 174.132812 245.613281 C 174.070312 245.613281 174.019531 245.5 174.019531 245.363281 C 174.019531 245.226562 173.945312 245.113281 173.84375 245.113281 C 173.757812 245.113281 173.605469 244.9375 173.519531 244.738281 C 173.417969 244.511719 173.269531 244.359375 173.128906 244.359375 C 172.980469 244.359375 172.894531 244.273438 172.894531 244.109375 C 172.894531 243.910156 172.804688 243.859375 172.464844 243.859375 C 172.140625 243.859375 172.015625 243.796875 171.953125 243.609375 C 171.914062 243.472656 171.789062 243.359375 171.675781 243.359375 C 171.578125 243.359375 171.328125 243.183594 171.140625 242.984375 C 170.925781 242.757812 170.664062 242.609375 170.476562 242.609375 C 170.261719 242.609375 170.125 242.519531 170.074219 242.355469 C 170.011719 242.167969 169.886719 242.105469 169.511719 242.105469 C 169.136719 242.105469 169.011719 242.042969 168.949219 241.855469 C 168.898438 241.679688 168.757812 241.605469 168.496094 241.605469 C 168.296875 241.605469 168.132812 241.542969 168.132812 241.480469 C 168.132812 241.40625 168.046875 241.355469 167.945312 241.355469 C 167.84375 241.355469 167.757812 241.292969 167.757812 241.230469 C 167.757812 241.15625 167.59375 241.105469 167.382812 241.105469 C 167.179688 241.105469 167.007812 241.15625 167.007812 241.230469 C 167.007812 241.304688 166.628906 241.355469 166.128906 241.355469 C 165.628906 241.355469 165.253906 241.304688 165.253906 241.230469 C 165.253906 241.15625 165.089844 241.105469 164.875 241.105469 C 164.675781 241.105469 164.5 241.15625 164.5 241.230469 C 164.5 241.292969 164.25 241.355469 163.9375 241.355469 C 163.625 241.355469 163.375 241.40625 163.375 241.480469 C 163.375 241.542969 163.199219 241.605469 162.984375 241.605469 C 162.773438 241.605469 162.636719 241.554688 162.683594 241.480469 C 162.722656 241.40625 162.648438 241.355469 162.507812 241.355469 C 162.359375 241.355469 162.246094 241.292969 162.246094 241.230469 C 162.246094 241.15625 162.109375 241.105469 161.933594 241.105469 C 161.757812 241.105469 161.621094 241.042969 161.621094 240.980469 C 161.621094 240.90625 161.507812 240.855469 161.382812 240.855469 C 161.246094 240.855469 161.09375 240.742188 161.058594 240.605469 C 160.996094 240.402344 160.867188 240.351562 160.457031 240.351562 C 160.066406 240.351562 159.867188 240.289062 159.742188 240.101562 C 159.640625 239.964844 159.441406 239.851562 159.304688 239.851562 C 159.164062 239.851562 158.964844 239.738281 158.863281 239.601562 C 158.765625 239.464844 158.550781 239.351562 158.402344 239.351562 C 158.238281 239.351562 158.113281 239.289062 158.113281 239.226562 C 158.113281 239.152344 158.039062 239.101562 157.9375 239.101562 C 157.839844 239.101562 157.710938 238.988281 157.675781 238.851562 C 157.636719 238.710938 157.488281 238.601562 157.347656 238.601562 C 157.199219 238.601562 157.113281 238.511719 157.113281 238.347656 C 157.113281 238.210938 157.023438 238.097656 156.921875 238.097656 C 156.824219 238.097656 156.734375 238 156.734375 237.875 C 156.734375 237.75 156.625 237.574219 156.484375 237.472656 C 156.347656 237.371094 156.171875 237.070312 156.097656 236.820312 C 156.035156 236.558594 155.921875 236.34375 155.859375 236.34375 C 155.785156 236.34375 155.734375 236.246094 155.734375 236.121094 C 155.734375 235.996094 155.621094 235.820312 155.484375 235.71875 C 155.34375 235.617188 155.171875 235.320312 155.09375 235.066406 C 155.03125 234.804688 154.917969 234.59375 154.855469 234.59375 C 154.78125 234.59375 154.730469 234.453125 154.730469 234.277344 C 154.730469 234.101562 154.621094 233.742188 154.480469 233.464844 C 154.34375 233.1875 154.230469 232.863281 154.230469 232.738281 C 154.230469 232.601562 154.117188 232.136719 153.980469 231.710938 C 153.84375 231.285156 153.730469 230.734375 153.730469 230.496094 C 153.730469 230.269531 153.628906 229.871094 153.492188 229.605469 C 153.367188 229.355469 153.230469 228.816406 153.179688 228.417969 C 153.140625 228.027344 153.015625 227.492188 152.929688 227.226562 C 152.828125 226.976562 152.714844 226.339844 152.664062 225.824219 C 152.617188 225.3125 152.527344 224.785156 152.464844 224.671875 C 152.390625 224.546875 152.253906 223.71875 152.152344 222.855469 C 152.050781 221.980469 151.914062 221.039062 151.851562 220.765625 C 151.789062 220.476562 151.675781 219.664062 151.601562 218.949219 C 151.527344 218.234375 151.398438 217.519531 151.335938 217.359375 C 151.273438 217.183594 151.164062 216.417969 151.085938 215.640625 C 150.925781 214.050781 150.9375 214.164062 151.050781 213.464844 C 151.101562 213.101562 151.0625 212.722656 150.925781 212.296875 C 150.625 211.394531 150.597656 210.996094 150.484375 207.011719 C 150.410156 203.894531 150.375 203.394531 150.183594 203.179688 C 149.949219 202.917969 149.871094 201.476562 150.097656 201.339844 C 150.171875 201.300781 150.222656 200.925781 150.222656 200.511719 C 150.222656 199.9375 150.183594 199.773438 150.035156 199.773438 C 149.921875 199.773438 149.847656 199.699219 149.859375 199.625 C 149.898438 199.285156 149.835938 199.171875 149.597656 199.109375 C 149.269531 199.023438 149.269531 198.558594 149.585938 197.855469 C 149.835938 197.304688 149.859375 196.703125 149.808594 190.191406 C 149.796875 189.289062 149.886719 187.800781 150.011719 186.875 C 150.121094 185.945312 150.171875 185.167969 150.121094 185.144531 C 149.972656 185.09375 150.085938 184.242188 150.296875 183.78125 C 150.398438 183.566406 150.472656 183.292969 150.472656 183.152344 C 150.472656 183.027344 150.546875 182.816406 150.648438 182.675781 C 150.738281 182.539062 150.847656 182.175781 150.898438 181.863281 C 150.949219 181.5625 151.039062 181.25 151.101562 181.160156 C 151.175781 181.085938 151.261719 180.671875 151.300781 180.261719 C 151.351562 179.835938 151.464844 179.421875 151.550781 179.347656 C 151.664062 179.257812 151.726562 178.933594 151.726562 178.46875 C 151.726562 178.070312 151.777344 177.71875 151.839844 177.679688 C 152.1875 177.453125 152.402344 174.199219 152.414062 168.773438 C 152.414062 163.1875 152.363281 163.414062 153.566406 163.277344 C 155.046875 163.113281 155.296875 163.0625 155.519531 162.851562 C 155.734375 162.664062 156.171875 162.625 158.863281 162.5625 C 161.070312 162.511719 162.035156 162.449219 162.171875 162.335938 C 162.285156 162.238281 163.074219 162.136719 164.152344 162.0625 C 165.140625 162 166.066406 161.886719 166.230469 161.824219 C 166.390625 161.75 166.679688 161.699219 166.878906 161.699219 C 167.09375 161.699219 167.257812 161.636719 167.257812 161.574219 C 167.257812 161.5 167.34375 161.449219 167.445312 161.449219 C 167.542969 161.449219 167.84375 161.335938 168.09375 161.199219 C 168.359375 161.058594 168.671875 160.949219 168.785156 160.949219 C 168.972656 160.949219 169.5625 160.695312 170.300781 160.308594 C 170.386719 160.265625 170.480469 160.242188 170.554688 160.242188 C 170.589844 160.242188 170.617188 160.246094 170.636719 160.257812 C 170.65625 160.269531 170.675781 160.277344 170.695312 160.277344 C 170.753906 160.277344 170.808594 160.222656 170.839844 160.144531 C 170.875 160.046875 171.113281 159.894531 171.363281 159.808594 C 171.628906 159.71875 171.964844 159.558594 172.128906 159.433594 C 172.292969 159.292969 172.503906 159.195312 172.605469 159.195312 C 172.703125 159.195312 172.957031 159.054688 173.167969 158.878906 C 173.367188 158.707031 173.605469 158.566406 173.695312 158.566406 C 173.792969 158.566406 173.996094 158.46875 174.15625 158.34375 C 174.332031 158.203125 174.882812 158.054688 175.523438 157.953125 C 176.113281 157.878906 176.761719 157.726562 176.964844 157.640625 C 177.175781 157.539062 177.714844 157.289062 178.179688 157.078125 C 178.667969 156.851562 179.230469 156.6875 179.503906 156.6875 C 179.832031 156.6875 180.070312 156.601562 180.21875 156.4375 C 180.324219 156.3125 180.476562 156.242188 180.59375 156.242188 C 180.617188 156.242188 180.636719 156.246094 180.65625 156.25 C 180.675781 156.257812 180.695312 156.257812 180.71875 156.257812 C 180.847656 156.257812 181.046875 156.179688 181.195312 156.0625 C 181.371094 155.925781 181.710938 155.722656 181.933594 155.613281 C 182.75 155.234375 183.113281 155.023438 183.601562 154.621094 C 183.875 154.410156 184.203125 154.195312 184.328125 154.144531 C 184.441406 154.109375 184.539062 154.007812 184.539062 153.933594 C 184.539062 153.871094 184.652344 153.808594 184.789062 153.808594 C 184.929688 153.808594 185.042969 153.71875 185.042969 153.621094 C 185.042969 153.507812 185.140625 153.394531 185.265625 153.34375 C 185.53125 153.257812 186.042969 152.792969 186.042969 152.65625 C 186.042969 152.59375 186.242188 152.378906 186.480469 152.167969 C 186.71875 151.953125 186.882812 151.730469 186.84375 151.667969 C 186.808594 151.605469 186.871094 151.554688 186.984375 151.554688 C 187.082031 151.554688 187.222656 151.429688 187.285156 151.265625 C 187.410156 150.941406 188.734375 149.550781 188.925781 149.550781 C 188.988281 149.550781 189.050781 149.460938 189.050781 149.363281 C 189.050781 149.261719 189.160156 149.175781 189.300781 149.175781 C 189.425781 149.175781 189.585938 149.097656 189.636719 149.011719 C 189.863281 148.636719 190.539062 148.324219 191.402344 148.171875 C 191.941406 148.085938 192.304688 147.960938 192.304688 147.871094 C 192.304688 147.785156 192.507812 147.621094 192.742188 147.507812 C 192.980469 147.394531 193.183594 147.246094 193.183594 147.171875 C 193.183594 147.109375 193.257812 147.046875 193.34375 147.046875 C 193.507812 147.046875 194.183594 146.34375 194.183594 146.167969 C 194.183594 146.105469 194.347656 145.957031 194.546875 145.84375 C 194.761719 145.71875 194.949219 145.503906 194.984375 145.355469 C 195.074219 144.992188 198.917969 141.171875 199.371094 140.996094 C 199.480469 140.945312 199.570312 140.832031 199.570312 140.71875 C 199.570312 140.621094 199.644531 140.53125 199.734375 140.53125 C 199.820312 140.53125 200.171875 140.167969 200.507812 139.71875 C 200.847656 139.265625 201.171875 138.902344 201.222656 138.902344 C 201.285156 138.902344 201.324219 138.742188 201.324219 138.554688 C 201.324219 138.351562 201.4375 138.089844 201.574219 137.964844 C 201.710938 137.839844 201.824219 137.613281 201.824219 137.476562 C 201.824219 137.324219 201.898438 137.101562 201.988281 136.960938 C 202.085938 136.824219 202.238281 136.300781 202.324219 135.796875 C 202.414062 135.296875 202.539062 134.859375 202.601562 134.820312 C 202.652344 134.785156 202.699219 134.519531 202.699219 134.230469 C 202.699219 133.933594 202.789062 133.582031 202.890625 133.429688 C 203.125 133.105469 203.503906 133.066406 208.777344 132.890625 C 212.769531 132.765625 214.148438 132.617188 216.414062 132.066406 C 217.117188 131.902344 217.78125 131.765625 217.894531 131.765625 C 218.019531 131.765625 218.242188 131.691406 218.394531 131.589844 C 218.542969 131.503906 218.96875 131.375 219.347656 131.339844 C 219.722656 131.289062 220.136719 131.1875 220.261719 131.125 C 220.386719 131.0625 220.8125 130.949219 221.199219 130.875 C 221.601562 130.8125 222.101562 130.675781 222.300781 130.574219 C 222.515625 130.488281 222.964844 130.375 223.304688 130.324219 C 223.65625 130.273438 224.019531 130.160156 224.117188 130.074219 C 224.21875 129.988281 224.644531 129.875 225.058594 129.824219 C 225.472656 129.785156 225.921875 129.671875 226.058594 129.585938 C 226.199219 129.5 226.636719 129.386719 227.035156 129.335938 C 227.4375 129.296875 227.9375 129.171875 228.125 129.070312 C 228.328125 128.972656 228.613281 128.882812 228.777344 128.882812 C 228.941406 128.882812 229.242188 128.773438 229.441406 128.632812 C 229.652344 128.496094 229.929688 128.382812 230.078125 128.382812 C 230.21875 128.382812 230.378906 128.332031 230.457031 128.28125 C 230.769531 127.992188 232.4375 127.753906 233.992188 127.753906 C 234.105469 127.753906 234.214844 127.753906 234.324219 127.757812 C 234.382812 127.757812 234.433594 127.757812 234.484375 127.757812 C 234.972656 127.757812 235.1875 127.699219 235.414062 127.519531 C 235.589844 127.367188 235.804688 127.257812 235.867188 127.257812 C 235.929688 127.257812 236.054688 127.167969 236.140625 127.066406 C 236.230469 126.96875 236.378906 126.878906 236.492188 126.878906 C 236.59375 126.878906 236.90625 126.78125 237.195312 126.640625 C 237.480469 126.515625 238.132812 126.292969 238.648438 126.128906 C 239.160156 125.980469 239.875 125.742188 240.210938 125.617188 C 240.5625 125.476562 240.953125 125.378906 241.089844 125.378906 C 241.226562 125.378906 241.550781 125.265625 241.816406 125.128906 C 242.066406 124.988281 242.355469 124.875 242.441406 124.875 C 242.53125 124.875 242.804688 124.765625 243.066406 124.625 C 243.320312 124.488281 243.695312 124.375 243.894531 124.375 C 244.109375 124.375 244.308594 124.324219 244.34375 124.25 C 244.382812 124.1875 244.746094 124.039062 245.132812 123.925781 C 245.523438 123.8125 245.875 123.6875 245.910156 123.636719 C 246.011719 123.511719 247.3125 123.011719 247.753906 122.921875 C 247.976562 122.871094 248.226562 122.761719 248.304688 122.671875 C 248.378906 122.570312 248.515625 122.496094 248.589844 122.496094 C 248.667969 122.496094 249.179688 122.269531 249.730469 121.996094 C 250.28125 121.71875 250.78125 121.496094 250.859375 121.496094 C 250.921875 121.496094 251.660156 121.167969 252.488281 120.757812 C 253.3125 120.355469 254.128906 119.953125 254.300781 119.878906 C 254.476562 119.804688 254.703125 119.691406 254.804688 119.640625 C 255.117188 119.453125 255.855469 119.140625 256.15625 119.050781 C 256.304688 119.015625 256.429688 118.925781 256.429688 118.863281 C 256.429688 118.816406 256.582031 118.703125 256.78125 118.625 C 256.96875 118.550781 257.320312 118.375 257.558594 118.238281 C 257.796875 118.101562 258.085938 117.988281 258.199219 117.988281 C 258.308594 117.988281 258.472656 117.898438 258.5625 117.800781 C 258.648438 117.699219 258.761719 117.613281 258.8125 117.613281 C 258.875 117.613281 259.351562 117.363281 259.863281 117.046875 C 260.390625 116.734375 260.867188 116.484375 260.914062 116.484375 C 260.964844 116.484375 261.140625 116.371094 261.316406 116.234375 C 261.492188 116.097656 261.730469 115.984375 261.855469 115.984375 C 261.980469 115.984375 262.105469 115.894531 262.144531 115.796875 C 262.191406 115.695312 262.304688 115.609375 262.417969 115.609375 C 262.519531 115.609375 262.707031 115.53125 262.808594 115.433594 C 263.007812 115.269531 265.699219 114.855469 266.613281 114.855469 C 266.863281 114.855469 267.078125 114.792969 267.078125 114.730469 C 267.078125 114.65625 267.351562 114.605469 267.703125 114.605469 C 268.292969 114.605469 270.144531 114.15625 270.835938 113.84375 C 272.039062 113.292969 272.464844 113.027344 273.652344 112.125 C 274.140625 111.75 275.21875 111.226562 275.507812 111.226562 C 275.621094 111.226562 275.71875 111.175781 275.71875 111.097656 C 275.71875 111.035156 275.90625 110.898438 276.132812 110.785156 C 276.945312 110.410156 278.160156 109.710938 278.300781 109.519531 C 278.375 109.433594 278.539062 109.347656 278.648438 109.347656 C 278.761719 109.347656 278.949219 109.144531 279.0625 108.90625 C 279.175781 108.667969 279.3125 108.46875 279.375 108.46875 C 279.425781 108.46875 279.476562 108.355469 279.476562 108.21875 C 279.476562 108.070312 279.390625 107.96875 279.277344 107.96875 C 278.988281 107.96875 279.113281 107.542969 279.414062 107.492188 C 279.550781 107.46875 279.902344 107.328125 280.191406 107.203125 C 280.480469 107.078125 280.765625 106.964844 280.816406 106.964844 C 280.878906 106.964844 281.105469 106.777344 281.316406 106.554688 C 281.667969 106.203125 281.707031 106.078125 281.695312 105.5 C 281.679688 105.085938 281.617188 104.835938 281.519531 104.835938 C 281.441406 104.835938 281.59375 104.597656 281.867188 104.324219 C 282.167969 104.011719 282.34375 103.722656 282.308594 103.621094 C 282.257812 103.523438 282.230469 103.183594 282.230469 102.882812 C 282.230469 102.382812 282.207031 102.332031 281.917969 102.332031 C 281.742188 102.332031 281.605469 102.269531 281.605469 102.207031 C 281.605469 102.132812 281.332031 102.082031 280.980469 102.082031 C 280.367188 102.082031 280.242188 102.007812 280.464844 101.769531 C 280.605469 101.617188 280.277344 100.566406 280.054688 100.429688 C 279.957031 100.359375 279.40625 100.328125 278.835938 100.328125 C 278.167969 100.328125 277.472656 100.371094 277.472656 100.453125 C 277.472656 100.515625 277.335938 100.578125 277.160156 100.578125 C 276.984375 100.578125 276.847656 100.628906 276.847656 100.703125 C 276.847656 100.765625 276.597656 100.828125 276.28125 100.828125 C 275.96875 100.828125 275.71875 100.878906 275.71875 100.941406 C 275.71875 101.003906 275.429688 101.078125 275.09375 101.128906 C 274.742188 101.179688 274.46875 101.269531 274.46875 101.332031 C 274.46875 101.40625 274.328125 101.457031 274.152344 101.457031 C 273.929688 101.457031 273.839844 101.394531 273.839844 101.203125 C 273.839844 100.714844 273.566406 100.328125 273.140625 100.253906 C 273.039062 100.234375 272.9375 100.226562 272.839844 100.226562 C 272.503906 100.226562 272.210938 100.320312 272.210938 100.464844 C 272.210938 100.527344 272.136719 100.578125 272.039062 100.578125 C 271.9375 100.578125 271.8125 100.691406 271.773438 100.828125 C 271.722656 100.96875 271.585938 101.078125 271.449219 101.078125 C 271.3125 101.078125 271.171875 101.167969 271.136719 101.269531 C 271.085938 101.367188 270.898438 101.457031 270.710938 101.457031 C 270.460938 101.457031 270.320312 101.53125 270.269531 101.707031 C 270.207031 101.90625 270.082031 101.957031 269.695312 101.957031 C 269.371094 101.957031 269.167969 102.019531 269.132812 102.144531 C 269.082031 102.246094 268.917969 102.332031 268.753906 102.332031 C 268.59375 102.332031 268.457031 102.382812 268.457031 102.457031 C 268.457031 102.519531 268.34375 102.582031 268.203125 102.582031 C 268.066406 102.582031 267.953125 102.632812 267.953125 102.707031 C 267.953125 102.769531 267.777344 102.832031 267.566406 102.832031 C 267.140625 102.832031 266.324219 103.171875 266.324219 103.347656 C 266.324219 103.410156 266.25 103.460938 266.164062 103.460938 C 266.074219 103.460938 265.835938 103.683594 265.625 103.960938 C 265.425781 104.234375 265.148438 104.597656 265.011719 104.761719 C 264.875 104.914062 264.597656 105.261719 264.382812 105.527344 C 263.144531 107.105469 261.878906 108.09375 261.101562 108.09375 C 260.902344 108.09375 260.628906 108.179688 260.488281 108.269531 C 260.339844 108.367188 259.964844 108.519531 259.636719 108.605469 C 259.324219 108.683594 259.023438 108.792969 258.988281 108.859375 C 258.949219 108.921875 258.824219 108.96875 258.710938 108.96875 C 258.585938 108.96875 258.296875 109.082031 258.046875 109.207031 C 257.796875 109.347656 257.359375 109.507812 257.082031 109.597656 C 256.792969 109.671875 256.558594 109.785156 256.558594 109.847656 C 256.558594 109.898438 256.320312 109.984375 256.03125 110.035156 C 255.730469 110.085938 255.378906 110.199219 255.230469 110.285156 C 255.078125 110.386719 254.765625 110.5 254.515625 110.535156 C 254.265625 110.585938 254 110.699219 253.914062 110.796875 C 253.839844 110.898438 253.675781 110.972656 253.5625 110.972656 C 253.449219 110.972656 253.199219 111.085938 252.988281 111.226562 C 252.785156 111.363281 252.5 111.476562 252.359375 111.476562 C 252.222656 111.476562 251.949219 111.5625 251.746094 111.664062 C 251.558594 111.761719 251.109375 111.925781 250.746094 112.027344 C 250.394531 112.125 249.945312 112.265625 249.730469 112.328125 C 248.101562 112.867188 247.691406 112.976562 247.453125 112.976562 C 247.3125 112.976562 246.886719 113.089844 246.511719 113.214844 C 245.859375 113.453125 245.296875 113.566406 243.09375 113.917969 C 242.480469 114.019531 241.867188 114.15625 241.753906 114.230469 C 241.628906 114.292969 241.140625 114.40625 240.675781 114.480469 C 240.199219 114.542969 239.648438 114.679688 239.449219 114.792969 C 239.246094 114.894531 238.882812 114.980469 238.648438 114.980469 C 238.410156 114.980469 237.996094 115.09375 237.730469 115.234375 C 237.480469 115.371094 237.144531 115.484375 236.992188 115.484375 C 236.832031 115.484375 236.542969 115.597656 236.328125 115.734375 C 236.128906 115.871094 235.839844 115.984375 235.703125 115.984375 C 235.566406 115.984375 235.351562 116.097656 235.226562 116.234375 C 235.113281 116.371094 234.875 116.484375 234.714844 116.484375 C 234.539062 116.484375 234.363281 116.546875 234.324219 116.609375 C 234.277344 116.683594 234.023438 116.835938 233.75 116.949219 C 233.488281 117.046875 233.261719 117.1875 233.261719 117.25 C 233.261719 117.3125 233.148438 117.363281 233.011719 117.363281 C 232.886719 117.363281 232.671875 117.472656 232.546875 117.601562 C 232.421875 117.738281 232.171875 117.875 231.984375 117.925781 C 231.785156 117.976562 231.632812 118.0625 231.632812 118.113281 C 231.632812 118.175781 231.421875 118.289062 231.167969 118.375 C 230.90625 118.453125 230.632812 118.5625 230.566406 118.625 C 230.492188 118.675781 229.792969 118.789062 229.003906 118.863281 C 228.214844 118.941406 227.199219 119.066406 226.75 119.128906 C 226.296875 119.191406 225.257812 119.328125 224.429688 119.429688 C 223.605469 119.515625 222.613281 119.691406 222.238281 119.792969 C 221.863281 119.902344 221.414062 119.992188 221.226562 119.992188 C 221.039062 119.992188 220.660156 120.078125 220.375 120.179688 C 220.074219 120.28125 219.359375 120.417969 218.769531 120.492188 C 218.179688 120.566406 217.582031 120.691406 217.441406 120.769531 C 217.1875 120.898438 216.539062 120.96875 215.890625 120.96875 C 215.355469 120.96875 214.824219 120.921875 214.523438 120.820312 C 214.199219 120.707031 213.796875 120.617188 213.621094 120.617188 C 213.460938 120.617188 213.148438 120.542969 212.933594 120.441406 C 212.707031 120.34375 212.167969 120.191406 211.71875 120.117188 C 208.664062 119.589844 207.796875 119.414062 206.796875 119.066406 C 206.472656 118.953125 206.070312 118.863281 205.90625 118.863281 C 205.746094 118.863281 205.367188 118.777344 205.082031 118.675781 C 204.792969 118.578125 204.265625 118.488281 203.914062 118.488281 C 203.328125 118.488281 202.9375 118.414062 201.800781 118.089844 C 201.347656 117.949219 201.324219 117.914062 201.324219 117.449219 C 201.324219 117.160156 201.410156 116.847656 201.523438 116.722656 C 201.636719 116.597656 201.75 116.273438 201.785156 115.996094 C 201.824219 115.707031 201.898438 115.484375 201.960938 115.484375 C 202.023438 115.484375 202.148438 115.296875 202.25 115.058594 C 202.351562 114.832031 202.488281 114.59375 202.5625 114.554688 C 202.636719 114.507812 202.699219 114.332031 202.699219 114.15625 C 202.699219 113.980469 202.789062 113.816406 202.890625 113.78125 C 202.988281 113.742188 203.101562 113.453125 203.152344 113.140625 C 203.265625 112.351562 203.589844 111.875 204.90625 110.535156 C 205.542969 109.898438 206.132812 109.195312 206.21875 108.984375 C 206.320312 108.769531 206.496094 108.558594 206.609375 108.519531 C 206.734375 108.480469 206.835938 108.40625 206.835938 108.34375 C 206.835938 108.28125 207.160156 108.082031 207.546875 107.894531 L 208.273438 107.554688 L 210.742188 107.644531 C 211.359375 107.660156 211.871094 107.671875 212.269531 107.671875 C 212.90625 107.671875 213.253906 107.644531 213.285156 107.59375 C 213.320312 107.53125 213.460938 107.46875 213.585938 107.46875 C 213.710938 107.46875 214.011719 107.316406 214.261719 107.117188 C 214.863281 106.679688 215.023438 106.078125 214.925781 104.800781 C 214.851562 103.898438 214.863281 103.785156 215.175781 103.246094 C 215.578125 102.582031 215.640625 102.007812 215.375 101.605469 C 215.214844 101.355469 215.214844 101.304688 215.402344 101.09375 C 215.664062 100.804688 215.675781 99.789062 215.414062 99.527344 C 215.164062 99.289062 215.164062 98.699219 215.414062 98.699219 C 215.714844 98.699219 216.515625 98.199219 216.878906 97.773438 C 217.140625 97.472656 217.21875 97.246094 217.230469 96.785156 C 217.230469 96.457031 217.179688 96.195312 217.117188 96.195312 C 217.066406 96.195312 216.917969 95.945312 216.804688 95.632812 C 216.679688 95.320312 216.527344 95.066406 216.453125 95.066406 C 216.328125 95.066406 215.976562 94.753906 215.976562 94.640625 C 215.976562 94.59375 215.800781 94.378906 215.589844 94.167969 C 215.375 93.941406 215.125 93.589844 215.023438 93.378906 C 214.925781 93.175781 214.761719 92.863281 214.675781 92.6875 C 214.535156 92.449219 214.523438 92.085938 214.585938 91.121094 C 214.6875 89.746094 214.4375 86.625 214.210938 86.351562 C 214.125 86.25 214.109375 85.949219 214.160156 85.574219 C 214.210938 85.234375 214.1875 84.734375 214.125 84.472656 C 214.046875 84.195312 213.921875 83.746094 213.847656 83.445312 C 213.773438 83.15625 213.660156 82.917969 213.597656 82.917969 C 213.523438 82.917969 213.472656 82.84375 213.472656 82.742188 C 213.472656 82.53125 212.496094 81.503906 212.183594 81.378906 C 212.070312 81.339844 211.96875 81.214844 211.96875 81.117188 C 211.96875 81.003906 211.832031 80.890625 211.65625 80.839844 C 211.480469 80.800781 211.34375 80.714844 211.34375 80.652344 C 211.34375 80.589844 211.230469 80.539062 211.09375 80.539062 C 210.953125 80.539062 210.84375 80.476562 210.84375 80.414062 C 210.84375 80.339844 210.589844 80.289062 210.277344 80.289062 C 209.964844 80.289062 209.714844 80.238281 209.714844 80.1875 C 209.714844 80.125 209.488281 79.976562 209.214844 79.839844 C 208.9375 79.710938 208.714844 79.5625 208.714844 79.5 C 208.714844 79.449219 208.601562 79.414062 208.460938 79.414062 C 208.324219 79.414062 208.210938 79.347656 208.210938 79.285156 C 208.210938 79.210938 208.050781 79.160156 207.859375 79.160156 C 207.671875 79.160156 207.449219 79.097656 207.359375 79.011719 C 207.285156 78.9375 206.734375 78.835938 206.144531 78.8125 C 205.558594 78.785156 205.082031 78.710938 205.082031 78.648438 C 205.082031 78.585938 204.941406 78.535156 204.769531 78.535156 C 204.59375 78.535156 204.453125 78.472656 204.453125 78.410156 C 204.453125 78.335938 204.179688 78.285156 203.828125 78.285156 C 203.488281 78.285156 203.203125 78.335938 203.203125 78.410156 C 203.203125 78.484375 202.289062 78.535156 200.695312 78.535156 C 199.105469 78.535156 198.191406 78.585938 198.191406 78.660156 C 198.191406 78.722656 198.03125 78.785156 197.839844 78.785156 C 197.328125 78.785156 196.136719 79.125 196.089844 79.273438 C 196.0625 79.347656 195.898438 79.414062 195.738281 79.414062 C 195.574219 79.414062 195.4375 79.460938 195.4375 79.539062 C 195.4375 79.601562 195.386719 79.664062 195.3125 79.664062 C 195.011719 79.664062 194.171875 80.113281 194.109375 80.3125 C 194.070312 80.4375 193.933594 80.539062 193.796875 80.539062 C 193.671875 80.539062 193.558594 80.589844 193.558594 80.664062 C 193.558594 80.726562 193.484375 80.789062 193.382812 80.789062 C 193.296875 80.789062 193.105469 80.925781 192.980469 81.101562 C 192.855469 81.277344 192.644531 81.417969 192.53125 81.417969 C 192.40625 81.417969 192.304688 81.464844 192.304688 81.542969 C 192.304688 81.605469 192.21875 81.667969 192.117188 81.667969 C 192.003906 81.667969 191.890625 81.753906 191.855469 81.855469 C 191.804688 81.953125 191.703125 82.042969 191.605469 82.042969 C 191.503906 82.042969 191.429688 82.09375 191.429688 82.167969 C 191.429688 82.230469 191.339844 82.292969 191.242188 82.292969 C 191.140625 82.292969 191.027344 82.429688 190.976562 82.605469 C 190.929688 82.804688 190.816406 82.917969 190.664062 82.917969 C 190.515625 82.917969 190.425781 83.007812 190.425781 83.167969 C 190.425781 83.308594 190.351562 83.421875 190.25 83.421875 C 190.152344 83.421875 190.027344 83.59375 189.976562 83.820312 C 189.9375 84.046875 189.824219 84.285156 189.738281 84.359375 C 189.652344 84.421875 189.550781 84.746094 189.511719 85.074219 C 189.488281 85.398438 189.363281 85.75 189.25 85.863281 C 189.136719 85.976562 189.050781 86.199219 189.050781 86.375 C 189.050781 86.539062 189 86.675781 188.9375 86.675781 C 188.875 86.675781 188.796875 86.828125 188.761719 87.015625 C 188.597656 87.792969 188.511719 88.117188 188.410156 88.179688 C 188.359375 88.21875 188.246094 88.832031 188.160156 89.558594 C 188.074219 90.285156 187.945312 90.910156 187.871094 90.960938 C 187.808594 91.011719 187.722656 91.410156 187.695312 91.863281 C 187.671875 92.3125 187.597656 92.6875 187.546875 92.6875 C 187.484375 92.6875 187.371094 93.015625 187.285156 93.402344 C 187.121094 94.128906 186.933594 94.441406 186.683594 94.441406 C 186.605469 94.441406 186.542969 94.492188 186.542969 94.554688 C 186.542969 94.617188 186.417969 94.691406 186.269531 94.71875 C 186.082031 94.742188 185.96875 94.855469 185.941406 95.03125 C 185.917969 95.21875 185.816406 95.320312 185.65625 95.320312 C 185.53125 95.320312 185.417969 95.367188 185.417969 95.445312 C 185.417969 95.507812 185.304688 95.570312 185.179688 95.570312 C 185.042969 95.570312 184.855469 95.65625 184.742188 95.757812 C 184.640625 95.855469 184.476562 95.945312 184.363281 95.945312 C 184.265625 95.945312 184.140625 96.058594 184.101562 96.195312 C 184.066406 96.332031 183.914062 96.445312 183.777344 96.445312 C 183.652344 96.445312 183.539062 96.535156 183.539062 96.632812 C 183.539062 96.734375 183.4375 96.820312 183.3125 96.820312 C 183.1875 96.820312 183.011719 96.933594 182.914062 97.070312 C 182.785156 97.246094 182.585938 97.324219 182.285156 97.324219 C 181.984375 97.324219 181.785156 97.246094 181.660156 97.070312 C 181.558594 96.933594 181.382812 96.820312 181.273438 96.820312 C 181.160156 96.820312 181.035156 96.734375 180.984375 96.632812 C 180.945312 96.535156 180.808594 96.445312 180.695312 96.445312 C 180.570312 96.445312 180.382812 96.332031 180.28125 96.195312 C 180.183594 96.058594 179.96875 95.945312 179.804688 95.945312 C 179.644531 95.945312 179.429688 95.855469 179.332031 95.757812 C 179.21875 95.65625 178.980469 95.570312 178.792969 95.570312 C 178.605469 95.570312 178.378906 95.46875 178.277344 95.320312 C 178.179688 95.179688 178.003906 95.066406 177.878906 95.066406 C 177.753906 95.066406 177.652344 95.019531 177.652344 94.957031 C 177.652344 94.890625 177.425781 94.816406 177.152344 94.765625 C 176.875 94.730469 176.648438 94.628906 176.648438 94.566406 C 176.648438 94.492188 176.5625 94.441406 176.460938 94.441406 C 176.363281 94.441406 176.273438 94.378906 176.273438 94.316406 C 176.273438 94.242188 176.160156 94.191406 176.023438 94.191406 C 175.886719 94.191406 175.773438 94.128906 175.773438 94.066406 C 175.773438 93.992188 175.683594 93.941406 175.585938 93.941406 C 175.484375 93.941406 175.398438 93.890625 175.398438 93.828125 C 175.398438 93.765625 175.195312 93.675781 174.960938 93.640625 C 174.722656 93.589844 174.519531 93.503906 174.519531 93.441406 C 174.519531 93.363281 174.40625 93.316406 174.269531 93.316406 C 174.132812 93.316406 174.019531 93.25 174.019531 93.1875 C 174.019531 93.113281 173.882812 93.0625 173.707031 93.0625 C 173.53125 93.0625 173.394531 93.015625 173.394531 92.953125 C 173.394531 92.886719 173.230469 92.800781 173.019531 92.75 C 172.816406 92.699219 172.640625 92.613281 172.640625 92.550781 C 172.640625 92.488281 172.554688 92.4375 172.441406 92.4375 C 172.339844 92.4375 172.066406 92.238281 171.839844 92 C 171.601562 91.761719 171.378906 91.5625 171.328125 91.5625 C 171.289062 91.5625 171.050781 91.359375 170.8125 91.121094 C 170.589844 90.882812 170.363281 90.683594 170.324219 90.683594 C 170.289062 90.683594 170.011719 90.433594 169.722656 90.121094 C 169.421875 89.808594 169.136719 89.558594 169.085938 89.558594 C 169.035156 89.558594 168.808594 89.355469 168.585938 89.117188 C 168.347656 88.878906 168.132812 88.679688 168.082031 88.679688 C 168.046875 88.679688 167.621094 88.28125 167.144531 87.804688 C 166.667969 87.316406 166.21875 86.925781 166.15625 86.925781 C 166.078125 86.925781 165.980469 86.8125 165.941406 86.675781 C 165.902344 86.539062 165.804688 86.425781 165.742188 86.425781 C 165.679688 86.425781 165.628906 86.339844 165.628906 86.238281 C 165.628906 86.136719 165.527344 86.050781 165.414062 86.050781 C 165.289062 86.050781 165.027344 85.851562 164.8125 85.613281 C 164.613281 85.375 164.386719 85.171875 164.324219 85.171875 C 164.261719 85.171875 164.050781 84.972656 163.835938 84.734375 C 163.636719 84.496094 163.410156 84.296875 163.347656 84.296875 C 163.273438 84.296875 163.046875 84.109375 162.824219 83.882812 C 162.609375 83.65625 162.285156 83.394531 162.097656 83.308594 C 161.894531 83.207031 161.746094 83.082031 161.746094 83.019531 C 161.746094 82.96875 161.671875 82.917969 161.570312 82.917969 C 161.46875 82.917969 161.371094 82.832031 161.320312 82.730469 C 161.28125 82.632812 161.183594 82.542969 161.09375 82.542969 C 160.996094 82.542969 160.84375 82.429688 160.742188 82.292969 C 160.644531 82.15625 160.519531 82.042969 160.457031 82.042969 C 160.40625 82.042969 160.230469 81.90625 160.066406 81.730469 C 159.90625 81.554688 159.730469 81.417969 159.679688 81.417969 C 159.628906 81.417969 159.417969 81.214844 159.203125 80.976562 C 159.003906 80.738281 158.789062 80.539062 158.726562 80.539062 C 158.539062 80.539062 156.421875 78.324219 156.171875 77.859375 C 156.035156 77.609375 155.882812 77.410156 155.835938 77.410156 C 155.769531 77.410156 155.734375 77.320312 155.734375 77.21875 C 155.734375 77.121094 155.597656 76.90625 155.421875 76.730469 C 155.246094 76.554688 155.109375 76.320312 155.109375 76.195312 C 155.109375 76.066406 154.996094 75.894531 154.855469 75.804688 C 154.71875 75.71875 154.605469 75.554688 154.605469 75.429688 C 154.605469 75.304688 154.492188 75.117188 154.355469 74.992188 C 154.21875 74.878906 154.105469 74.703125 154.105469 74.601562 C 154.105469 74.503906 154.019531 74.402344 153.917969 74.351562 C 153.816406 74.316406 153.730469 74.226562 153.730469 74.152344 C 153.730469 74 153.628906 73.875 153.042969 73.210938 C 152.839844 72.988281 152.550781 72.648438 152.425781 72.472656 C 152.300781 72.296875 152.113281 72.148438 152.027344 72.148438 C 151.9375 72.148438 151.828125 72.023438 151.789062 71.886719 C 151.738281 71.734375 151.273438 71.183594 150.773438 70.671875 C 150.261719 70.15625 149.847656 69.679688 149.847656 69.628906 C 149.847656 69.566406 149.757812 69.519531 149.660156 69.519531 C 149.558594 69.519531 149.472656 69.457031 149.472656 69.390625 C 149.472656 69.316406 149.058594 68.867188 148.570312 68.378906 C 148.070312 67.902344 147.390625 67.261719 147.078125 66.949219 C 146.753906 66.636719 146.441406 66.386719 146.378906 66.386719 C 146.316406 66.386719 146.191406 66.25 146.113281 66.074219 C 146.039062 65.898438 145.914062 65.761719 145.851562 65.761719 C 145.726562 65.761719 145.414062 65.496094 144.3125 64.46875 C 144.035156 64.21875 143.722656 64.007812 143.636719 64.007812 C 143.535156 64.007812 143.460938 63.945312 143.460938 63.882812 C 143.460938 63.804688 143.234375 63.519531 142.957031 63.242188 C 142.683594 62.96875 142.457031 62.691406 142.457031 62.65625 C 142.457031 62.605469 142.121094 62.242188 141.707031 61.828125 C 141.292969 61.425781 140.953125 61.050781 140.953125 60.988281 C 140.953125 60.925781 140.867188 60.875 140.765625 60.875 C 140.667969 60.875 140.578125 60.824219 140.578125 60.761719 C 140.578125 60.613281 139.992188 60 139.828125 60 C 139.765625 60 139.703125 59.9375 139.703125 59.875 C 139.703125 59.796875 139.601562 59.648438 139.464844 59.511719 C 139.339844 59.386719 139.175781 59.199219 139.125 59.097656 C 138.949219 58.796875 138.160156 57.855469 137.859375 57.582031 C 137.699219 57.445312 137.574219 57.28125 137.574219 57.21875 C 137.574219 57.15625 137.511719 57.042969 137.449219 56.957031 C 137.371094 56.867188 137.058594 56.46875 136.757812 56.054688 C 136.457031 55.640625 136.007812 55.039062 135.757812 54.714844 C 135.519531 54.402344 135.320312 54.101562 135.320312 54.039062 C 135.320312 53.988281 135.117188 53.648438 134.878906 53.296875 C 134.640625 52.933594 134.390625 52.496094 134.316406 52.347656 C 134.242188 52.183594 134.105469 51.90625 134.003906 51.734375 C 133.902344 51.558594 133.816406 51.28125 133.816406 51.132812 C 133.816406 50.96875 133.742188 50.65625 133.640625 50.441406 C 133.539062 50.21875 133.425781 49.667969 133.378906 49.203125 C 133.328125 48.726562 133.214844 48.300781 133.128906 48.226562 C 133.027344 48.136719 132.914062 47.886719 132.863281 47.648438 C 132.828125 47.410156 132.738281 47.1875 132.675781 47.148438 C 132.613281 47.125 132.511719 46.847656 132.425781 46.558594 C 132.351562 46.273438 132.199219 45.933594 132.085938 45.796875 C 131.773438 45.457031 131.710938 42.753906 131.988281 41.8125 C 132.300781 40.722656 132.5 38.207031 132.324219 37.367188 C 132.25 36.980469 132.1875 36.515625 132.1875 36.339844 C 132.1875 36.152344 132.085938 35.863281 131.976562 35.703125 C 131.800781 35.464844 131.75 35.136719 131.75 34.359375 C 131.75 33.421875 131.710938 33.296875 131.410156 32.984375 C 131.046875 32.582031 130.683594 31.917969 130.683594 31.632812 C 130.683594 31.53125 130.632812 31.441406 130.585938 31.441406 C 130.523438 31.441406 130.171875 31.128906 129.796875 30.753906 L 129.117188 30.066406 Z M 128.304688 30.066406 " fill-opacity="1" fill-rule="nonzero"/></g><g fill="#b6ccfe" fill-opacity="1"><g transform="translate(124.787579, 292.016436)"><g><path d="M 12.421875 -4.0625 C 13.035156 -4.0625 13.695312 -4.15625 14.40625 -4.34375 C 15.125 -4.539062 15.742188 -4.863281 16.265625 -5.3125 C 16.796875 -5.757812 17.0625 -6.363281 17.0625 -7.125 C 17.0625 -7.84375 16.785156 -8.414062 16.234375 -8.84375 C 15.679688 -9.28125 14.957031 -9.640625 14.0625 -9.921875 C 13.164062 -10.203125 12.1875 -10.460938 11.125 -10.703125 C 10.070312 -10.953125 9.007812 -11.25 7.9375 -11.59375 C 6.863281 -11.9375 5.878906 -12.390625 4.984375 -12.953125 C 4.085938 -13.515625 3.363281 -14.242188 2.8125 -15.140625 C 2.269531 -16.035156 2 -17.171875 2 -18.546875 C 2 -19.898438 2.273438 -21.066406 2.828125 -22.046875 C 3.390625 -23.035156 4.140625 -23.851562 5.078125 -24.5 C 6.015625 -25.15625 7.0625 -25.644531 8.21875 -25.96875 C 9.382812 -26.289062 10.554688 -26.453125 11.734375 -26.453125 C 13.515625 -26.453125 15.1875 -26.171875 16.75 -25.609375 C 18.3125 -25.046875 19.582031 -24.15625 20.5625 -22.9375 C 21.539062 -21.726562 22.054688 -20.125 22.109375 -18.125 L 16.5625 -18.125 C 16.40625 -19.476562 15.929688 -20.414062 15.140625 -20.9375 C 14.347656 -21.46875 13.238281 -21.734375 11.8125 -21.734375 C 11.269531 -21.734375 10.695312 -21.644531 10.09375 -21.46875 C 9.5 -21.289062 8.988281 -21 8.5625 -20.59375 C 8.144531 -20.195312 7.9375 -19.671875 7.9375 -19.015625 C 7.9375 -18.347656 8.207031 -17.820312 8.75 -17.4375 C 9.300781 -17.050781 10.023438 -16.726562 10.921875 -16.46875 C 11.816406 -16.21875 12.800781 -15.976562 13.875 -15.75 C 14.945312 -15.519531 16.015625 -15.238281 17.078125 -14.90625 C 18.140625 -14.570312 19.113281 -14.117188 20 -13.546875 C 20.894531 -12.972656 21.617188 -12.222656 22.171875 -11.296875 C 22.722656 -10.378906 23 -9.207031 23 -7.78125 C 23 -6.25 22.691406 -4.945312 22.078125 -3.875 C 21.460938 -2.800781 20.632812 -1.9375 19.59375 -1.28125 C 18.5625 -0.632812 17.398438 -0.160156 16.109375 0.140625 C 14.828125 0.453125 13.519531 0.609375 12.1875 0.609375 C 10.269531 0.609375 8.472656 0.285156 6.796875 -0.359375 C 5.128906 -1.015625 3.773438 -2.019531 2.734375 -3.375 C 1.703125 -4.726562 1.175781 -6.460938 1.15625 -8.578125 L 6.96875 -8.578125 C 7.050781 -7.023438 7.628906 -5.882812 8.703125 -5.15625 C 9.773438 -4.425781 11.015625 -4.0625 12.421875 -4.0625 Z M 12.421875 -4.0625 "/></g></g></g><g fill="#b6ccfe" fill-opacity="1"><g transform="translate(158.55876, 292.016436)"><g><path d="M 16.484375 -9.96875 L 13.1875 -19.234375 L 9.890625 -9.96875 Z M 26.21875 0 L 20.046875 0 L 18.171875 -5.25 L 8.234375 -5.25 L 6.359375 0 L 0.1875 0 L 10.765625 -26.0625 L 15.640625 -26.0625 Z M 26.21875 0 "/></g></g></g><g fill="#b6ccfe" fill-opacity="1"><g transform="translate(194.591533, 292.016436)"><g><path d="M 13.375 -20.84375 L 13.375 0 L 7.625 0 L 7.625 -20.84375 L 0.1875 -20.84375 L 0.1875 -26.0625 L 20.8125 -26.0625 L 20.8125 -20.84375 Z M 13.375 -20.84375 "/></g></g></g><g fill="#b6ccfe" fill-opacity="1"><g transform="translate(225.219491, 292.016436)"><g><path d="M 17.515625 -26.0625 L 23.265625 -26.0625 L 23.265625 -10.15625 C 23.265625 -6.675781 22.316406 -4.046875 20.421875 -2.265625 C 18.535156 -0.492188 15.894531 0.390625 12.5 0.390625 C 9.09375 0.390625 6.441406 -0.492188 4.546875 -2.265625 C 2.660156 -4.046875 1.71875 -6.675781 1.71875 -10.15625 L 1.71875 -26.0625 L 7.46875 -26.0625 L 7.46875 -11 C 7.46875 -9.207031 7.816406 -7.816406 8.515625 -6.828125 C 9.222656 -5.847656 10.550781 -5.359375 12.5 -5.359375 C 14.46875 -5.359375 15.796875 -5.847656 16.484375 -6.828125 C 17.171875 -7.816406 17.515625 -9.207031 17.515625 -11 Z M 17.515625 -26.0625 "/></g></g></g><g fill="#b6ccfe" fill-opacity="1"><g transform="translate(117.264142, 328.016434)"><g><path d="M 9.921875 0 L 9.921875 -12.453125 L 0.3125 -26.0625 L 7.171875 -26.0625 L 12.796875 -17.0625 L 18.4375 -26.0625 L 25.296875 -26.0625 L 15.671875 -12.453125 L 15.671875 0 Z M 9.921875 0 "/></g></g></g><g fill="#b6ccfe" fill-opacity="1"><g transform="translate(152.491938, 328.016434)"><g><path d="M 22.421875 -13.0625 C 22.421875 -14.414062 22.0625 -15.675781 21.34375 -16.84375 C 20.632812 -18.007812 19.695312 -18.945312 18.53125 -19.65625 C 17.363281 -20.375 16.101562 -20.734375 14.75 -20.734375 C 13.425781 -20.734375 12.175781 -20.375 11 -19.65625 C 9.820312 -18.945312 8.875 -18.007812 8.15625 -16.84375 C 7.445312 -15.675781 7.09375 -14.414062 7.09375 -13.0625 C 7.09375 -11.738281 7.445312 -10.488281 8.15625 -9.3125 C 8.875 -8.132812 9.820312 -7.179688 11 -6.453125 C 12.175781 -5.722656 13.425781 -5.359375 14.75 -5.359375 C 16.101562 -5.359375 17.363281 -5.722656 18.53125 -6.453125 C 19.695312 -7.179688 20.632812 -8.132812 21.34375 -9.3125 C 22.0625 -10.488281 22.421875 -11.738281 22.421875 -13.0625 Z M 28.171875 -13.03125 C 28.171875 -11.238281 27.8125 -9.53125 27.09375 -7.90625 C 26.382812 -6.289062 25.410156 -4.863281 24.171875 -3.625 C 22.929688 -2.382812 21.503906 -1.40625 19.890625 -0.6875 C 18.285156 0.03125 16.570312 0.390625 14.75 0.390625 C 12.96875 0.390625 11.265625 0.03125 9.640625 -0.6875 C 8.015625 -1.40625 6.582031 -2.382812 5.34375 -3.625 C 4.101562 -4.863281 3.125 -6.289062 2.40625 -7.90625 C 1.695312 -9.53125 1.34375 -11.238281 1.34375 -13.03125 C 1.34375 -14.84375 1.695312 -16.550781 2.40625 -18.15625 C 3.125 -19.769531 4.101562 -21.195312 5.34375 -22.4375 C 6.582031 -23.675781 8.015625 -24.65625 9.640625 -25.375 C 11.265625 -26.09375 12.96875 -26.453125 14.75 -26.453125 C 16.570312 -26.453125 18.285156 -26.09375 19.890625 -25.375 C 21.503906 -24.65625 22.929688 -23.675781 24.171875 -22.4375 C 25.410156 -21.195312 26.382812 -19.769531 27.09375 -18.15625 C 27.8125 -16.550781 28.171875 -14.84375 28.171875 -13.03125 Z M 28.171875 -13.03125 "/></g></g></g><g fill="#b6ccfe" fill-opacity="1"><g transform="translate(191.629597, 328.016434)"><g><path d="M 15.328125 -21.078125 C 13.953125 -21.078125 12.6875 -20.707031 11.53125 -19.96875 C 10.382812 -19.226562 9.46875 -18.242188 8.78125 -17.015625 C 8.09375 -15.785156 7.75 -14.429688 7.75 -12.953125 C 7.75 -11.492188 8.09375 -10.144531 8.78125 -8.90625 C 9.46875 -7.664062 10.382812 -6.675781 11.53125 -5.9375 C 12.6875 -5.195312 13.953125 -4.828125 15.328125 -4.828125 C 16.171875 -4.828125 17.054688 -4.945312 17.984375 -5.1875 C 18.921875 -5.4375 19.789062 -5.90625 20.59375 -6.59375 C 21.40625 -7.28125 22.039062 -8.273438 22.5 -9.578125 L 15.875 -9.578125 L 15.875 -13.90625 L 28.703125 -13.90625 L 28.703125 -13.03125 C 28.703125 -11.1875 28.359375 -9.453125 27.671875 -7.828125 C 26.984375 -6.210938 26.023438 -4.785156 24.796875 -3.546875 C 23.566406 -2.304688 22.144531 -1.335938 20.53125 -0.640625 C 18.925781 0.046875 17.191406 0.390625 15.328125 0.390625 C 13.492188 0.390625 11.765625 0.0390625 10.140625 -0.65625 C 8.515625 -1.363281 7.085938 -2.332031 5.859375 -3.5625 C 4.640625 -4.789062 3.675781 -6.210938 2.96875 -7.828125 C 2.269531 -9.453125 1.921875 -11.1875 1.921875 -13.03125 C 1.921875 -14.875 2.269531 -16.601562 2.96875 -18.21875 C 3.675781 -19.84375 4.640625 -21.269531 5.859375 -22.5 C 7.085938 -23.726562 8.515625 -24.691406 10.140625 -25.390625 C 11.765625 -26.097656 13.492188 -26.453125 15.328125 -26.453125 C 17.242188 -26.453125 19.054688 -26.0625 20.765625 -25.28125 C 22.484375 -24.5 23.976562 -23.421875 25.25 -22.046875 C 26.53125 -20.679688 27.46875 -19.09375 28.0625 -17.28125 L 21.734375 -17.28125 C 21.097656 -18.664062 20.191406 -19.644531 19.015625 -20.21875 C 17.835938 -20.789062 16.609375 -21.078125 15.328125 -21.078125 Z M 15.328125 -21.078125 "/></g></g></g><g fill="#b6ccfe" fill-opacity="1"><g transform="translate(231.303903, 328.016434)"><g><path d="M 16.484375 -9.96875 L 13.1875 -19.234375 L 9.890625 -9.96875 Z M 26.21875 0 L 20.046875 0 L 18.171875 -5.25 L 8.234375 -5.25 L 6.359375 0 L 0.1875 0 L 10.765625 -26.0625 L 15.640625 -26.0625 Z M 26.21875 0 "/></g></g></g></svg>